<?xml version="1.0" encoding="UTF-8" standalone="no"?><!-- Generator: Gravit.io --><svg xmlns="http://www.w3.org/2000/svg" xmlns:xlink="http://www.w3.org/1999/xlink" style="isolation:isolate" viewBox="0 0 192 192" width="192pt" height="192pt"><defs><clipPath id="_clipPath_Z1bCKKFJmkqDxJhhX7NHVsT7hXhEMNVR"><rect width="192" height="192"/></clipPath></defs><g clip-path="url(#_clipPath_Z1bCKKFJmkqDxJhhX7NHVsT7hXhEMNVR)"><g><path d=" M 155.797 60.742 C 157.206 54.477 155.457 47.082 146.764 39.065 C 132.623 51.865 136.659 65.175 141.345 71.581 C 141.345 71.581 140.752 75.194 126.893 75.194 L 18.506 75.194 C 18.506 75.194 11.887 133 76.313 133 C 132.652 133 148.473 89.631 151.562 78.539 C 152.848 78.709 154.272 78.821 155.797 78.806 C 163.557 78.749 173.608 74.572 177.474 58.993 C 167.213 55.435 160.638 57.042 155.797 60.742 Z " fill="rgb(3,169,244)"/><path d=" M 19.099 89.645 C 21.751 106.763 32.9 133 76.313 133 C 120.332 133 139.622 106.525 147.429 89.645 L 19.099 89.645 Z " fill="rgb(2,136,209)"/><path d=" M 82.863 132.776 C 79.532 131.62 64.527 128.838 61.861 107.71 C 46.651 114.441 33.182 112.677 27.257 111.351 C 35.061 123.021 49.541 133 76.313 133 C 78.556 133 80.731 132.917 82.863 132.772 L 82.863 132.776 Z " fill="rgb(129,212,250)"/><path d=" M 83.538 104.097 C 83.538 108.087 80.303 111.323 76.313 111.323 C 72.322 111.323 69.087 108.087 69.087 104.097 C 69.087 100.106 72.322 96.871 76.313 96.871 C 80.303 96.871 83.538 100.106 83.538 104.097 Z " fill="rgb(255,255,255)"/><path d=" M 65.163 109.87 C 65.969 111.691 65.235 114.061 63.313 114.625 C 51.391 118.14 41.116 118.606 33.337 118.606 C 31.104 116.457 29.099 114.083 27.354 111.521 C 36.697 111.521 51.6 111.084 60.394 108.035 C 62.284 107.37 64.358 108.035 65.163 109.87 Z  M 18.506 86.032 C 18.506 86.032 25.28 86.484 29.345 82.419 C 36.119 88.518 50.809 86.357 54.635 82.419 C 58.476 88.518 79.702 87.387 83.538 82.419 C 88.055 87.615 107.474 88.742 112.442 82.419 C 114.176 87.694 137.082 89.194 141.345 82.419 C 145.185 86.357 159.637 89.421 167.766 82.419 C 169.793 86.711 177.474 86.032 177.474 86.032 L 177.474 89.645 L 18.506 89.645 M 72.7 104.097 C 72.7 106.084 74.326 107.71 76.313 107.71 C 78.3 107.71 79.926 106.084 79.926 104.097 C 79.926 102.11 78.3 100.484 76.313 100.484 C 74.326 100.484 72.7 102.11 72.7 104.097 Z " fill="rgb(55,71,79)"/><path d=" M 51.022 75.194 L 32.958 75.194 L 32.958 57.129 L 51.022 57.129 L 51.022 75.194 Z  M 87.151 57.129 L 69.087 57.129 L 69.087 75.194 L 87.151 75.194 L 87.151 57.129 Z  M 123.28 57.129 L 105.216 57.129 L 105.216 75.194 L 123.28 75.194 L 123.28 57.129 Z  M 69.087 39.065 L 51.022 39.065 L 51.022 57.129 L 69.087 57.129 L 69.087 39.065 Z  M 105.216 39.065 L 87.151 39.065 L 87.151 57.129 L 105.216 57.129 L 105.216 39.065 Z " fill="rgb(1,87,155)"/><path d=" M 69.087 75.194 L 51.022 75.194 L 51.022 57.129 L 69.087 57.129 L 69.087 75.194 Z  M 105.216 57.129 L 87.151 57.129 L 87.151 75.194 L 105.216 75.194 L 105.216 57.129 Z  M 105.216 21 L 87.151 21 L 87.151 39.065 L 105.216 39.065 L 105.216 21 Z  M 87.151 39.065 L 69.087 39.065 L 69.087 57.129 L 87.151 57.129 L 87.151 39.065 Z " fill="rgb(2,136,209)"/></g><text transform="matrix(1,0,0,1,39.5,160.69)" style="font-family:'Lilita One';font-weight:400;font-size:30px;font-style:normal;fill:#01579b;stroke:none;">DUNNER</text></g></svg>